<?xml version="1.0" standalone="no"?>
<!DOCTYPE svg PUBLIC "-//W3C//DTD SVG 20010904//EN"
 "http://www.w3.org/TR/2001/REC-SVG-20010904/DTD/svg10.dtd">
<svg version="1.0" xmlns="http://www.w3.org/2000/svg"
 width="4167.000000pt" height="4167.000000pt" viewBox="0 0 4167.000000 4167.000000"
 preserveAspectRatio="xMidYMid meet">
<metadata>
Created by potrace 1.16, written by Peter Selinger 2001-2019
</metadata>
<g transform="translate(0.000000,4167.000000) scale(0.100000,-0.100000)"
fill="#000000" stroke="none">
<path d="M0 23234 l0 -18436 22 5 c73 17 88 18 88 7 0 -6 4 -9 10 -5 15 9 51
-34 57 -68 4 -28 -58 -275 -112 -447 -8 -25 -26 -81 -40 -126 l-25 -81 0
-2042 0 -2041 1329 0 1330 0 7 23 c3 12 19 50 35 84 16 34 30 70 32 80 2 10 8
28 15 40 7 12 13 30 15 40 2 10 9 31 16 47 6 16 13 39 14 50 1 12 5 24 10 27
4 3 9 14 12 25 2 10 16 49 29 87 14 37 23 67 20 67 -4 0 -2 6 3 13 9 11 31 69
37 100 2 7 5 19 9 27 3 8 22 65 43 125 21 61 43 119 50 130 7 11 13 22 13 25
-1 24 73 134 84 124 3 -3 8 3 11 14 6 19 64 49 110 58 11 2 28 -3 37 -12 25
-23 17 -70 -36 -219 -69 -192 -187 -528 -190 -540 -2 -10 -9 -29 -28 -80 -7
-16 -12 -34 -12 -40 -1 -5 -6 -20 -13 -31 -6 -12 -9 -23 -7 -26 3 -3 -13 -55
-35 -117 -22 -61 -40 -114 -40 -117 0 -2 239 -3 531 -2 l531 3 24 40 c13 22
29 51 35 65 6 14 16 32 24 40 7 8 27 40 43 70 16 30 38 70 48 89 22 38 175
258 198 284 9 9 16 19 16 22 0 7 149 226 245 360 114 159 175 251 175 261 0 6
15 28 33 50 19 21 65 82 103 134 86 118 85 118 107 138 9 9 17 20 17 25 0 4
28 44 62 89 35 44 73 94 85 110 12 16 30 38 40 48 10 10 36 37 57 59 22 23 45
41 52 41 19 0 40 -135 22 -146 -4 -3 -6 -9 -4 -13 3 -4 -3 -19 -12 -33 -63
-95 -112 -163 -169 -230 -36 -43 -62 -78 -59 -78 3 0 -3 -10 -13 -22 -99 -117
-301 -375 -399 -509 -197 -269 -212 -290 -212 -300 0 -5 -4 -9 -10 -9 -5 0
-10 -7 -10 -15 0 -8 -5 -15 -10 -15 -6 0 -14 -10 -19 -23 -8 -20 -183 -253
-200 -267 -6 -4 -112 -139 -194 -246 l-19 -24 2433 0 c1338 0 2430 3 2427 6
-6 5 36 45 85 83 23 18 77 24 93 10 13 -10 11 -70 -3 -91 -2 -5 2850 -8 6338
-8 l6342 0 96 61 c90 57 152 98 176 116 43 32 116 80 205 133 58 35 107 67
110 70 3 4 28 20 55 35 28 16 54 35 58 42 4 7 14 13 21 13 7 0 24 9 37 21 13
11 62 41 109 67 47 25 87 48 90 52 5 6 254 151 430 250 52 30 120 70 150 89
73 46 264 141 285 141 13 0 16 -6 12 -22 -3 -13 -9 -40 -12 -60 -9 -46 -45
-80 -150 -143 -88 -52 -563 -305 -573 -305 -6 0 -12 -4 -14 -9 -2 -5 -25 -20
-53 -33 -27 -14 -115 -61 -195 -105 -80 -44 -230 -128 -335 -185 -104 -58
-228 -128 -275 -155 -47 -27 -94 -55 -105 -61 -15 -9 1299 -11 5349 -12 l5368
0 -8 48 c-4 26 -9 61 -10 77 -2 17 -8 50 -13 75 -5 25 -17 91 -27 147 -10 57
-21 103 -25 103 -13 0 3 41 20 50 20 10 88 -22 129 -61 46 -45 70 -107 103
-276 l32 -163 3013 0 3013 0 -15 43 c-8 23 -17 49 -21 57 -3 8 -7 20 -8 26 -8
33 -17 54 -26 54 -6 0 -8 4 -5 9 4 5 1 22 -6 38 -6 15 -12 30 -12 33 -1 3 -5
11 -9 18 -5 6 -6 12 -2 12 3 0 0 10 -7 23 -6 12 -13 31 -15 42 -2 11 -8 22
-13 23 -6 2 -8 8 -5 13 3 4 -1 22 -10 39 -8 16 -15 33 -14 37 1 14 -35 113
-42 113 -3 0 -6 11 -6 23 0 13 -7 39 -16 58 -8 19 -21 52 -28 74 -7 22 -19 56
-27 75 -9 19 -16 37 -17 40 0 3 -4 11 -8 18 -5 6 -6 12 -3 12 4 0 -81 254
-101 300 -3 8 -7 20 -9 25 -1 6 -26 75 -54 155 -39 111 -50 154 -46 184 5 40
20 58 46 52 39 -10 60 -19 60 -28 0 -5 4 -7 9 -4 16 10 131 -120 131 -148 0
-9 5 -16 11 -16 5 0 7 -4 4 -10 -3 -5 1 -20 9 -32 8 -13 40 -99 70 -193 31
-93 59 -177 63 -185 3 -8 5 -19 4 -23 0 -4 4 -18 11 -30 7 -12 13 -30 15 -41
2 -10 14 -46 27 -80 14 -33 32 -87 42 -118 10 -32 21 -58 26 -58 4 0 5 -7 2
-15 -4 -8 -1 -15 5 -15 6 0 11 -7 11 -15 0 -24 24 -95 32 -95 4 0 5 -7 2 -15
-4 -8 -1 -15 5 -15 6 0 8 -7 5 -15 -4 -8 -1 -15 7 -15 7 0 10 -3 6 -6 -3 -4 3
-29 14 -58 11 -28 22 -58 24 -66 2 -8 9 -28 16 -45 6 -16 14 -39 16 -50 2 -11
8 -22 13 -23 6 -2 7 -8 4 -13 -3 -6 0 -16 6 -24 7 -8 10 -15 7 -15 -3 0 -1
-14 4 -30 6 -17 15 -30 21 -30 5 0 7 -4 3 -9 -3 -5 0 -21 6 -35 l12 -26 1324
0 1323 0 0 2048 1 2047 -37 115 c-20 63 -40 123 -45 132 -5 10 -9 25 -9 33 0
8 -4 23 -9 33 -5 9 -24 64 -42 122 -17 58 -38 127 -46 153 -46 149 -120 432
-118 446 2 9 4 21 4 27 1 17 40 58 59 62 16 3 27 4 74 1 9 0 22 -7 29 -15 6
-8 19 -14 29 -14 10 0 20 -7 24 -15 3 -8 11 -15 18 -15 7 0 26 -11 41 -25 l27
-26 0 18281 0 18280 -20835 0 -20835 0 0 -18436z m17785 10917 c456 -62 840
-180 1233 -381 l153 -78 62 28 c208 92 455 71 644 -56 l66 -44 43 15 c270 92
599 -16 759 -249 21 -31 40 -56 41 -56 2 0 23 21 46 48 168 186 380 335 538
378 88 23 254 24 340 1 165 -45 337 -175 416 -315 1 -2 59 35 130 81 498 323
1006 514 1579 593 183 25 611 30 804 10 922 -98 1746 -551 2341 -1286 445
-551 720 -1209 817 -1955 26 -202 26 -819 0 -1015 -66 -494 -215 -968 -441
-1405 l-72 -141 19 -45 c27 -64 65 -211 77 -302 13 -91 43 -143 151 -264 132
-147 190 -330 224 -693 9 -96 24 -235 35 -308 l19 -132 62 -90 c45 -67 91
-116 173 -188 324 -283 550 -559 749 -914 42 -76 95 -151 158 -224 334 -386
648 -846 859 -1259 149 -292 267 -585 435 -1075 151 -441 191 -525 315 -650
85 -86 162 -140 334 -231 181 -97 268 -187 315 -327 26 -76 29 -223 5 -301
l-15 -52 35 -39 c74 -82 116 -201 116 -326 0 -195 -103 -359 -282 -448 -37
-19 -89 -38 -114 -42 l-46 -7 5 -36 c3 -20 15 -95 26 -166 39 -249 54 -447 54
-745 1 -380 -26 -672 -94 -1020 -206 -1057 -645 -1849 -1244 -2243 -351 -231
-706 -305 -1038 -216 -71 20 -82 20 -145 8 -96 -20 -338 -17 -426 4 -94 24
-188 65 -272 119 -54 35 -84 47 -130 53 -209 26 -412 132 -574 301 -206 215
-326 495 -381 894 -14 102 -19 533 -7 610 6 34 1 26 -20 -36 -37 -110 -84
-185 -167 -269 -135 -135 -255 -185 -463 -193 l-132 -4 -48 -56 c-91 -107
-428 -394 -528 -450 -17 -10 -16 -18 20 -170 36 -151 38 -166 34 -278 -6 -136
-28 -216 -83 -308 -19 -32 -35 -62 -35 -66 0 -4 16 -34 35 -66 56 -93 77 -172
82 -309 6 -143 -7 -210 -67 -331 -46 -95 -134 -195 -222 -254 l-61 -40 74 7
c41 5 173 8 294 7 176 -1 246 -5 350 -23 265 -44 501 -121 744 -242 590 -292
1029 -776 1215 -1339 25 -74 48 -160 51 -190 3 -30 8 -65 11 -78 l5 -23 272 3
c266 3 273 2 330 -20 65 -27 162 -111 193 -167 15 -28 24 -35 39 -30 18 5 108
15 295 35 41 4 140 15 220 24 80 9 190 21 245 27 55 5 138 14 185 19 47 6 164
17 260 25 96 8 218 19 270 25 52 5 142 14 200 19 58 6 193 18 300 26 107 9
238 20 290 25 52 5 149 14 215 20 66 5 172 14 235 20 483 43 647 45 775 11 44
-12 125 -43 180 -69 l100 -49 130 9 c72 4 191 13 265 19 147 13 1205 12 1482
0 149 -7 160 -9 221 -39 83 -41 167 -130 196 -206 13 -36 52 -278 116 -724 85
-597 95 -677 86 -731 -12 -73 -38 -133 -80 -185 -17 -21 -31 -42 -31 -45 0 -3
17 -17 37 -31 51 -35 120 -132 138 -194 8 -28 30 -152 49 -276 20 -124 51
-327 71 -452 39 -252 38 -307 -9 -412 -12 -28 -32 -75 -43 -104 l-21 -52 48
-25 c90 -46 167 -133 199 -225 6 -19 37 -165 67 -323 36 -188 65 -313 84 -360
33 -83 51 -180 48 -264 -1 -32 14 -138 32 -236 31 -163 33 -185 23 -244 -38
-220 -232 -362 -454 -331 -47 6 -74 4 -117 -8 -43 -13 -79 -15 -147 -11 -67 5
-104 2 -141 -9 -33 -10 -82 -14 -149 -12 -58 1 -126 -4 -162 -12 -47 -10 -76
-11 -119 -3 -43 8 -65 7 -97 -4 -27 -9 -77 -13 -146 -12 -65 1 -118 -3 -136
-10 -18 -8 -65 -12 -120 -10 -50 2 -116 -3 -150 -10 -37 -8 -85 -11 -127 -7
-42 4 -77 2 -95 -5 -15 -7 -77 -14 -138 -16 -274 -9 -337 -13 -376 -23 -23 -7
-74 -11 -113 -9 -39 1 -98 -3 -131 -10 -33 -8 -86 -11 -118 -8 -32 3 -73 1
-90 -5 -18 -6 -75 -12 -127 -14 -52 -1 -153 -8 -225 -15 -71 -6 -169 -13 -217
-14 -47 -2 -103 -8 -125 -14 -21 -6 -55 -11 -75 -11 -36 0 -37 -1 -33 -32 11
-93 9 -112 -18 -168 -20 -42 -41 -56 -100 -66 -46 -9 -61 -8 -77 3 -11 8 -20
11 -20 7 0 -4 -10 2 -23 14 -13 12 -27 19 -30 15 -4 -4 -14 3 -23 15 -8 12
-20 22 -25 22 -9 0 -196 147 -254 198 -11 10 -38 30 -60 45 -22 14 -52 38 -67
52 -15 14 -30 25 -33 25 -7 0 -64 50 -117 103 -30 30 -57 44 -134 67 -53 17
-99 28 -103 26 -3 -2 -73 -9 -156 -15 -82 -6 -186 -16 -230 -21 -250 -30 -311
-33 -393 -21 -206 30 -392 132 -564 308 l-77 80 -83 -9 c-127 -13 -613 -30
-705 -25 -132 7 -246 75 -310 185 -21 36 -30 42 -47 37 -19 -6 -61 -12 -217
-31 -42 -5 -115 3 -310 35 -139 23 -274 49 -298 57 -33 10 -97 14 -240 14
-108 0 -225 5 -260 10 -58 10 -153 49 -165 68 -2 4 -42 2 -88 -5 -193 -32
-216 -30 -394 26 l-162 51 -78 -14 c-44 -8 -212 -22 -374 -32 -274 -16 -299
-16 -351 -1 -74 22 -145 71 -192 134 l-38 50 -97 -23 c-143 -35 -179 -38 -314
-24 l-123 12 -130 -37 c-71 -20 -159 -39 -195 -42 -36 -3 -96 -14 -133 -25
-97 -29 -191 -22 -282 20 -40 19 -84 32 -109 32 -92 1 -199 60 -265 147 -39
51 -27 52 -196 -25 -193 -88 -157 -84 -659 -67 -439 15 -724 28 -950 44 -114
9 -119 8 -153 -14 -60 -41 -127 -58 -213 -53 -96 6 -161 35 -247 112 l-60 55
-23 -23 c-12 -13 -49 -39 -82 -56 -54 -29 -74 -33 -179 -41 -262 -20 -530 -16
-1094 15 -154 8 -385 20 -513 26 -219 10 -237 12 -314 40 -45 16 -82 29 -83
27 -1 -1 -13 -23 -28 -48 -53 -93 -165 -166 -269 -175 -121 -11 -617 -22 -653
-14 -22 4 -138 31 -258 59 l-218 52 -55 -48 c-149 -130 -305 -217 -454 -253
-112 -26 -273 -27 -406 -1 -55 11 -192 36 -305 55 l-206 35 -169 -45 c-359
-97 -323 -92 -509 -64 -244 37 -283 40 -322 23 -23 -9 -147 -27 -313 -44 -288
-29 -296 -29 -492 3 l-67 11 -57 -49 c-151 -132 -286 -210 -422 -245 -85 -22
-225 -25 -362 -9 -179 21 -278 32 -355 36 l-80 6 -24 -37 c-47 -71 -140 -127
-237 -144 -32 -5 -162 -24 -287 -41 -195 -26 -237 -29 -285 -20 -31 6 -88 12
-127 14 -38 2 -119 9 -180 15 -60 7 -147 14 -191 17 l-81 6 -8 -38 c-3 -21
-15 -55 -25 -75 -11 -20 -17 -47 -15 -60 3 -13 8 -37 11 -54 11 -58 11 -221
-1 -266 -13 -52 -44 -95 -95 -130 -18 -13 -44 -33 -56 -44 -46 -41 -65 -55
-74 -55 -6 0 -13 -7 -16 -15 -4 -8 -12 -15 -19 -15 -7 0 -15 -3 -17 -8 -1 -4
-40 -37 -85 -72 -46 -36 -83 -68 -83 -72 0 -5 -6 -8 -12 -8 -7 0 -33 -18 -57
-40 -24 -22 -52 -42 -62 -45 -11 -4 -19 -10 -19 -15 0 -18 -106 -59 -145 -56
-55 5 -89 14 -93 25 -2 5 -12 19 -22 31 -30 35 -38 143 -15 205 24 64 76 163
94 179 12 11 21 23 21 27 0 12 88 100 145 145 28 21 54 45 58 52 4 6 15 12 24
12 9 0 14 2 11 5 -3 3 -61 -7 -129 -21 -114 -24 -130 -25 -194 -14 -38 7 -100
11 -137 10 -36 -1 -86 4 -110 11 -23 6 -83 13 -133 14 -49 1 -148 8 -220 14
-71 6 -175 13 -230 15 -55 1 -112 8 -127 14 -17 7 -52 9 -90 5 -38 -3 -87 0
-123 8 -33 7 -94 12 -135 10 -42 -2 -95 2 -118 8 -40 11 -104 15 -377 24 -60
3 -125 9 -143 15 -19 6 -68 9 -115 6 -57 -4 -96 -1 -129 9 -33 10 -72 13 -131
10 -61 -4 -98 -1 -140 11 -32 9 -62 14 -67 11 -18 -11 -165 -6 -210 7 -33 10
-60 11 -100 5 -38 -7 -74 -5 -120 4 -36 7 -107 12 -158 10 -52 -1 -119 4 -150
10 -32 7 -111 13 -177 13 -113 1 -124 3 -187 33 -84 40 -146 101 -188 187 -56
113 -55 130 49 781 49 314 221 1398 381 2410 239 1512 295 1849 315 1892 28
63 101 143 160 178 89 52 131 56 511 52 358 -4 656 -20 1187 -63 50 -4 77 -3
77 4 0 6 23 35 51 66 65 72 153 116 243 123 68 6 470 -10 666 -27 63 -5 174
-14 245 -20 354 -28 500 -41 608 -50 543 -47 689 -60 787 -70 52 -5 147 -14
210 -20 63 -6 207 -20 320 -31 297 -29 394 -38 495 -48 50 -5 107 -16 128 -25
21 -8 82 -20 135 -26 53 -5 138 -15 187 -20 50 -6 126 -14 170 -19 l80 -7 45
34 c92 71 145 84 428 103 l182 12 0 42 c0 178 130 542 284 795 355 581 996
1009 1694 1130 232 40 518 49 717 21 33 -5 61 -8 62 -7 1 1 -26 21 -61 44
-119 78 -211 200 -262 347 -25 72 -28 93 -28 210 0 114 4 140 27 210 15 44 42
105 61 136 l34 56 -33 54 c-19 30 -46 90 -61 134 -24 69 -28 97 -30 205 l-1
125 -63 98 c-47 72 -70 99 -89 103 -204 45 -375 175 -463 351 -25 48 -57 134
-73 191 l-28 102 -36 0 c-37 0 -151 22 -185 36 -18 7 -19 3 -14 -80 7 -111 -6
-323 -27 -443 -66 -380 -260 -690 -535 -853 -73 -44 -175 -85 -247 -101 -42
-9 -70 -23 -102 -51 -104 -90 -221 -152 -362 -189 -69 -19 -114 -23 -252 -25
-160 -2 -170 -4 -247 -33 -133 -52 -208 -64 -380 -65 -126 0 -174 4 -259 22
-336 75 -630 244 -930 537 -260 253 -460 540 -657 937 -230 468 -396 985 -478
1498 -53 329 -61 429 -61 838 l0 382 -41 0 c-103 0 -257 78 -332 168 -88 106
-128 225 -119 361 5 94 29 168 77 245 l30 47 -24 67 c-61 172 -35 343 74 489
28 36 86 85 192 160 233 166 332 274 399 436 43 104 68 200 153 582 84 376
138 583 223 839 218 665 622 1387 1134 2029 65 81 134 171 153 200 95 143 444
543 709 813 l197 201 104 239 c97 224 271 614 349 784 l34 75 -38 71 c-55 101
-79 202 -79 339 0 174 30 266 156 486 l44 75 -49 115 c-141 334 -238 699 -293
1104 -20 150 -23 211 -23 525 0 396 12 526 79 852 267 1304 1164 2364 2329
2753 163 54 292 87 467 119 117 21 188 30 395 50 110 11 547 -4 690 -23z
m21585 -20463 c368 -177 356 -169 398 -239 25 -41 30 -123 10 -142 -33 -31
-65 -43 -118 -41 -46 2 -91 19 -270 100 -118 53 -220 100 -226 105 -36 29 5
183 63 236 20 18 38 31 42 29 3 -1 49 -23 101 -48z m-37045 -392 c33 -33 73
-152 66 -196 -7 -37 19 -23 -331 -184 -123 -57 -176 -74 -194 -64 -9 5 -22 8
-28 7 -7 -1 -22 2 -33 6 -57 24 -73 89 -39 159 8 16 14 33 14 38 0 18 76 75
130 98 14 6 45 21 70 34 25 13 69 32 98 42 28 10 52 22 52 26 0 4 6 8 13 8 6
0 32 11 57 24 59 30 96 31 125 2z m34805 -2764 c0 -4 15 -8 32 -9 23 0 40 -10
59 -32 26 -32 102 -200 113 -253 4 -16 11 -28 17 -28 6 0 8 -4 4 -10 -3 -5 -1
-17 4 -27 6 -10 29 -63 52 -118 56 -136 69 -167 79 -187 5 -9 12 -43 16 -76 7
-65 -6 -104 -33 -100 -29 5 -102 88 -130 148 -7 14 -31 66 -54 115 -24 50 -44
99 -46 109 -2 11 -10 27 -18 36 -8 8 -39 81 -70 160 -31 80 -63 155 -71 168
-28 43 -14 115 18 96 4 -3 8 0 8 5 0 6 5 11 10 11 6 0 10 -3 10 -8z m-32664
-438 c11 -16 -6 -62 -125 -339 -76 -176 -152 -340 -169 -365 -85 -126 -139
-132 -133 -15 3 51 13 82 103 295 41 96 92 221 114 278 37 98 85 169 105 157
5 -4 9 -2 9 4 0 12 39 19 64 11 11 -4 25 -15 32 -26z m31327 -4263 c46 -24
117 -84 117 -100 0 -5 4 -11 8 -13 5 -1 21 -34 36 -73 15 -38 32 -73 38 -76 5
-3 11 -12 12 -20 1 -8 8 -25 14 -39 23 -52 162 -381 162 -385 0 -2 18 -42 40
-89 22 -47 49 -109 61 -138 12 -29 27 -66 34 -83 8 -16 21 -50 30 -75 10 -25
25 -63 35 -85 9 -22 39 -92 65 -155 27 -63 52 -120 56 -125 4 -6 12 -29 18
-50 5 -22 21 -71 34 -110 36 -99 54 -274 34 -321 -25 -59 -80 -50 -153 24 -53
54 -154 195 -184 257 -8 16 -17 32 -20 35 -11 10 -40 69 -40 81 0 7 -7 20 -16
30 -8 9 -17 23 -18 31 -3 14 -51 123 -65 149 -6 9 -31 68 -56 130 -26 63 -51
116 -56 117 -5 2 -7 7 -4 12 3 5 -3 23 -14 42 -11 18 -36 74 -56 123 -21 50
-51 117 -67 150 -16 33 -43 94 -60 135 -16 41 -40 98 -53 125 -76 164 -147
324 -149 339 -1 6 -5 16 -9 23 -14 23 -10 83 6 101 10 10 17 23 17 29 0 35
137 38 203 4z m1385 -433 c43 -40 164 -154 270 -252 106 -99 192 -185 192
-192 0 -6 9 -23 20 -37 54 -68 47 -214 -11 -237 -53 -22 -141 -2 -205 46 -19
15 -34 24 -34 22 0 -2 -35 30 -77 72 -43 42 -98 93 -123 114 -25 21 -105 96
-177 166 -129 124 -133 129 -126 162 11 59 32 98 76 140 37 36 86 66 110 68 4
0 42 -33 85 -72z m-31240 33 c2 -6 10 -18 18 -26 8 -7 17 -33 20 -57 5 -39 -5
-67 -106 -298 -61 -140 -115 -259 -119 -265 -4 -5 -31 -68 -60 -140 -29 -71
-61 -143 -71 -160 -10 -16 -47 -102 -83 -190 -114 -278 -201 -464 -255 -549
-15 -23 -35 -56 -45 -75 -18 -33 -67 -94 -131 -164 -39 -43 -96 -69 -116 -54
-30 24 -41 57 -41 132 -1 63 36 244 51 255 4 3 10 23 14 45 4 22 11 45 16 50
5 6 17 33 28 60 49 124 133 323 148 348 8 15 12 27 7 27 -4 0 -3 4 3 8 6 4 30
54 54 112 23 58 46 110 50 115 4 6 38 87 76 180 37 94 71 172 75 175 4 3 28
56 54 119 25 62 50 121 55 130 22 41 40 85 40 98 0 8 5 11 10 8 6 -3 10 -1 10
6 0 20 71 80 125 104 38 18 63 22 109 20 33 -1 62 -8 64 -14z m19547 -284 c94
-60 173 -116 176 -125 11 -31 -29 -123 -78 -178 -40 -45 -115 -94 -145 -94
-43 0 -366 204 -369 234 -4 39 48 122 131 209 56 59 87 80 105 69 6 -4 87 -55
180 -115z m-20978 -108 c43 -24 105 -88 97 -101 -3 -4 -1 -8 4 -8 12 0 32 -76
26 -103 -3 -18 -184 -198 -303 -301 -25 -22 -80 -73 -121 -113 -116 -112 -163
-140 -252 -147 -43 -4 -55 -1 -76 19 -30 28 -34 42 -34 110 0 44 30 126 53
145 3 3 8 11 10 18 7 22 523 501 541 501 10 1 34 -9 55 -20z m11766 -190 c47
-25 151 -148 191 -227 20 -39 10 -64 -34 -87 -16 -8 -83 -51 -149 -96 -138
-92 -170 -105 -212 -83 -16 8 -32 15 -36 17 -5 1 -21 18 -38 37 -16 19 -33 36
-37 38 -13 6 -66 106 -72 137 -3 17 -3 35 2 40 4 6 77 55 162 109 85 54 162
105 170 112 17 17 25 17 53 3z m738 -206 c20 -27 62 -92 95 -146 32 -54 67
-107 77 -117 9 -11 17 -26 17 -35 0 -8 5 -15 11 -15 5 0 8 -4 4 -9 -3 -5 -1
-12 5 -16 6 -4 8 -11 5 -16 -4 -5 -1 -9 4 -9 17 0 13 -76 -4 -90 -20 -16 -56
-6 -95 27 -32 26 -254 355 -271 401 -7 19 -5 29 7 43 9 10 21 16 25 13 5 -3 9
0 9 5 0 6 17 11 38 11 34 0 42 -5 73 -47z m7899 -353 c0 -3 10 -7 22 -7 13 -1
24 -7 26 -13 2 -5 8 -10 14 -10 11 0 33 -23 77 -79 14 -19 44 -55 66 -79 22
-24 40 -47 40 -51 0 -3 15 -22 34 -41 18 -19 41 -46 49 -60 17 -25 39 -52 123
-144 25 -28 80 -94 122 -146 42 -52 106 -131 142 -175 135 -163 175 -214 175
-220 0 -4 22 -39 48 -78 52 -78 90 -171 99 -243 6 -48 -14 -137 -28 -128 -5 3
-9 1 -9 -5 0 -26 -131 -37 -166 -14 -14 9 -27 13 -31 10 -3 -4 -18 2 -32 12
-14 10 -42 26 -61 35 -45 20 -64 33 -108 76 -21 19 -51 47 -67 62 -34 31 -80
83 -273 309 -35 41 -84 98 -110 127 -25 29 -52 61 -59 72 -15 21 -56 67 -162
185 -96 105 -114 126 -151 175 -19 24 -43 53 -52 64 -19 21 -33 71 -23 86 3 5
0 10 -7 10 -9 0 -9 3 2 10 8 5 10 10 4 10 -7 0 -26 -17 -44 -37 -17 -21 -39
-47 -49 -58 -10 -11 -26 -33 -37 -50 -48 -76 -123 -133 -157 -119 -19 7 -30
60 -17 85 6 10 8 19 6 19 -13 0 211 360 241 388 30 28 42 28 107 -3 53 -25 93
-26 108 -3 4 7 8 9 8 4 0 -5 8 -2 18 7 10 10 21 15 24 12 3 -3 16 -1 29 4 26
10 59 10 59 1z m-6505 -388 c10 -7 12 -10 71 -107 20 -33 39 -62 43 -65 4 -3
22 -30 40 -60 17 -30 49 -82 71 -115 22 -33 59 -98 82 -145 39 -76 43 -92 43
-156 0 -86 -24 -140 -67 -149 -15 -4 -28 -11 -28 -15 0 -12 -75 15 -109 39
-16 11 -31 18 -35 14 -3 -3 -6 -1 -6 5 0 6 -6 17 -14 24 -7 8 -39 52 -69 99
-31 46 -69 102 -84 123 -15 22 -37 54 -48 72 -11 18 -41 64 -67 103 -27 40
-48 76 -48 81 0 6 -4 10 -9 10 -13 0 -19 31 -10 50 4 8 15 32 23 52 18 41 104
130 121 125 5 -2 16 2 23 10 14 14 61 17 77 5z m-1687 -31 c15 0 38 -9 51 -18
60 -47 100 -86 96 -93 -3 -4 2 -10 10 -13 32 -13 64 -196 35 -205 -5 -2 -10
-9 -10 -15 0 -11 -35 -53 -210 -257 -25 -28 -74 -84 -110 -124 -36 -39 -87
-98 -115 -131 -27 -33 -68 -80 -90 -105 -22 -26 -71 -84 -110 -130 -140 -167
-285 -312 -285 -285 0 3 -10 -4 -22 -15 -20 -18 -70 -45 -154 -82 -11 -5 -27
-8 -35 -7 -8 2 -24 0 -36 -4 -13 -5 -36 -1 -60 9 -21 9 -42 16 -48 15 -5 -2
-7 1 -2 5 4 4 1 17 -6 28 -17 27 -14 107 7 181 10 37 71 149 119 220 62 91 84
119 207 261 44 51 66 78 110 134 19 25 37 47 40 50 3 3 35 41 70 85 35 44 84
103 109 131 25 28 82 95 126 149 44 54 85 103 90 109 6 6 23 28 38 49 15 20
35 37 43 37 7 0 14 4 14 9 0 11 30 17 73 15 15 -1 40 -2 55 -3z m-7820 -130
c1 -1 3 0 5 2 4 4 53 -47 69 -73 16 -25 97 -122 144 -171 13 -14 24 -31 24
-36 0 -6 3 -13 8 -15 4 -1 27 -28 51 -58 25 -30 49 -60 55 -65 26 -24 134
-154 166 -199 19 -26 50 -63 68 -81 17 -18 32 -36 32 -40 0 -4 9 -17 20 -29
25 -26 170 -203 230 -279 25 -32 75 -93 113 -137 37 -44 67 -84 67 -88 0 -4
20 -28 43 -54 29 -31 50 -67 62 -105 9 -32 21 -67 25 -78 3 -11 6 -51 5 -90
-4 -123 -63 -195 -153 -188 -19 1 -41 8 -47 15 -7 7 -92 110 -191 228 -98 118
-222 265 -276 327 -54 61 -98 114 -98 117 0 2 -12 17 -26 33 -45 49 -165 192
-339 403 -94 113 -173 206 -177 208 -4 2 -14 26 -24 54 -26 78 -14 216 25 305
17 37 31 65 31 61 0 -4 11 4 25 17 21 19 38 23 63 16z m19415 -16 c4 -9 12
-13 17 -10 17 11 80 -50 155 -150 47 -63 196 -364 236 -477 7 -21 17 -38 23
-38 5 0 7 -3 4 -6 -3 -3 29 -83 72 -177 42 -95 90 -199 104 -232 15 -33 38
-82 50 -110 13 -27 47 -104 76 -170 29 -66 109 -241 178 -390 68 -148 151
-331 184 -405 33 -74 71 -160 85 -190 69 -147 171 -468 175 -548 3 -51 1 -57
-17 -59 -20 -3 -68 51 -129 147 -16 25 -42 65 -58 89 -15 25 -28 48 -28 53 0
5 -11 25 -25 46 -67 101 -450 882 -497 1015 -6 15 -14 27 -20 27 -5 0 -7 4 -4
8 3 5 -4 24 -16 43 -12 19 -51 99 -88 179 -168 365 -295 635 -300 640 -3 3
-34 68 -69 145 -34 77 -66 142 -70 145 -12 7 -98 203 -112 252 -25 87 -27 139
-9 173 12 23 19 26 44 21 17 -4 34 -13 39 -21z m-5078 -241 c50 -23 121 -105
136 -154 12 -41 11 -46 -20 -106 -18 -35 -36 -64 -40 -64 -3 0 -18 -21 -31
-47 -14 -25 -34 -56 -45 -68 -11 -12 -38 -52 -60 -89 -22 -37 -55 -88 -72
-112 -18 -24 -33 -48 -33 -52 0 -11 -68 -66 -111 -90 -138 -75 -226 118 -136
298 12 25 26 48 31 52 10 6 58 82 92 143 20 36 110 175 123 192 6 6 24 34 41
62 27 43 36 51 62 51 16 0 45 -7 63 -16z m-9923 -169 c7 7 9 -21 8 -80 0 -29
-11 -72 -25 -102 -13 -28 -21 -54 -17 -57 3 -3 -1 -14 -9 -23 -23 -29 -30 -44
-199 -410 -89 -191 -165 -352 -170 -358 -4 -5 -45 -93 -90 -195 -46 -102 -87
-187 -91 -190 -4 -3 -41 -80 -82 -170 -95 -211 -183 -396 -252 -532 -30 -58
-55 -113 -55 -122 0 -9 -3 -16 -7 -16 -5 0 -16 -21 -27 -48 -10 -26 -36 -76
-56 -112 -21 -36 -41 -75 -45 -87 -3 -13 -11 -23 -16 -23 -5 0 -9 -7 -9 -15 0
-9 -12 -33 -26 -55 -14 -22 -34 -53 -43 -69 -9 -16 -28 -51 -43 -78 -15 -26
-37 -60 -50 -75 -13 -14 -30 -36 -38 -48 -27 -40 -71 -80 -82 -74 -22 14 8
171 61 319 12 33 33 92 46 130 13 39 40 106 60 150 20 44 187 415 372 825 397
883 393 874 404 878 5 2 9 13 9 25 0 12 9 37 21 56 11 19 23 44 25 55 2 12 8
22 14 24 5 2 10 12 10 22 0 10 3 20 8 22 9 4 52 97 55 119 2 10 8 23 15 31 6
8 17 28 24 44 35 78 172 234 207 234 9 0 25 7 35 15 17 13 22 13 36 0 9 -8 19
-13 22 -10z m19388 15 c0 -5 8 -11 18 -14 10 -3 30 -32 44 -64 48 -106 56
-233 21 -342 -2 -8 -5 -17 -5 -20 0 -3 -8 -10 -18 -17 -9 -7 -74 -82 -145
-167 -70 -86 -131 -156 -136 -156 -9 0 -5 -18 18 -67 7 -18 18 -33 23 -33 6 0
10 -6 10 -12 0 -16 42 -56 83 -79 84 -49 165 -87 171 -82 3 4 6 0 6 -9 0 -8
11 -20 24 -26 27 -12 59 -70 54 -98 -4 -25 -55 -67 -69 -58 -6 3 -14 2 -18 -4
-13 -22 -127 14 -247 78 -119 63 -119 63 -212 66 -51 2 -99 1 -106 -2 -15 -6
-45 -41 -345 -404 -185 -223 -203 -243 -216 -240 -3 0 -12 -5 -19 -13 -14 -14
-46 -15 -86 -3 -62 19 -106 142 -85 241 3 17 9 44 11 60 11 60 53 120 265 377
85 102 174 212 199 243 46 58 130 163 185 231 17 20 32 41 34 47 3 7 155 190
269 322 10 11 37 47 62 80 41 55 62 83 114 146 14 17 31 25 58 26 21 1 38 -2
38 -7z m-14551 -286 c38 -16 101 -71 101 -88 0 -6 11 -24 25 -40 14 -16 25
-34 25 -40 1 -6 14 -27 30 -46 17 -19 30 -37 30 -41 0 -7 59 -101 77 -124 4
-5 14 -22 22 -37 8 -16 18 -28 23 -28 4 0 8 -4 8 -10 0 -5 44 -78 98 -160 318
-491 406 -631 410 -651 2 -8 15 -39 29 -69 14 -30 35 -74 46 -98 11 -23 18
-45 14 -48 -3 -3 1 -27 9 -53 15 -52 12 -153 -6 -159 -5 -2 -10 -10 -10 -18 0
-20 -63 -18 -103 2 -121 62 -283 242 -442 489 -32 50 -97 148 -144 219 -47 71
-90 136 -96 145 -5 9 -12 18 -15 21 -8 7 -123 187 -154 243 -16 26 -32 47 -37
47 -5 0 -8 3 -6 8 1 4 -4 14 -11 22 -23 28 -164 245 -184 284 -48 93 -6 197
93 235 38 14 128 12 168 -5z m20698 -134 c1 0 8 -6 15 -12 8 -7 23 -18 33 -24
26 -15 62 -84 110 -214 21 -58 41 -107 44 -110 3 -3 8 -14 9 -25 2 -11 9 -23
14 -26 6 -4 8 -11 4 -17 -3 -6 -1 -16 6 -24 7 -7 13 -17 13 -23 0 -19 69 -185
77 -185 4 0 5 -6 2 -14 -3 -8 -1 -17 5 -21 6 -3 11 -12 11 -20 0 -7 9 -34 20
-59 11 -26 19 -49 19 -53 0 -3 3 -9 8 -12 5 -3 21 -46 36 -96 15 -49 31 -101
35 -115 11 -34 7 -109 -6 -122 -16 -16 -57 17 -94 75 -60 92 -133 239 -129
260 0 4 -4 7 -10 7 -5 0 -7 5 -4 10 3 6 1 10 -5 10 -6 0 -8 5 -5 10 4 6 -1 22
-9 35 -9 14 -14 25 -12 25 3 0 -7 26 -21 58 -31 69 -46 105 -47 112 -7 31 -42
110 -49 110 -4 0 -6 3 -3 8 2 4 -3 23 -12 42 -8 19 -16 37 -17 40 -28 79 -116
294 -124 300 -12 10 -11 51 2 65 10 12 42 14 84 5z m-13729 -240 c22 -21 63
-71 92 -110 30 -38 57 -70 60 -70 3 0 12 -16 20 -35 8 -19 17 -35 21 -35 12 0
4 -73 -7 -77 -29 -10 -72 28 -176 152 -62 75 -115 143 -116 152 -5 19 28 50
66 62 1 1 19 -17 40 -39z m-1531 -40 c23 -10 47 -29 54 -42 6 -12 17 -26 23
-30 6 -4 11 -35 11 -70 -1 -59 -5 -69 -55 -148 -30 -47 -58 -86 -62 -88 -5 -2
-8 -10 -8 -18 0 -8 -9 -23 -19 -33 -10 -10 -43 -58 -72 -105 -28 -47 -56 -86
-61 -86 -4 0 -7 -3 -6 -7 1 -5 -10 -26 -25 -48 -16 -22 -74 -109 -130 -194
-175 -265 -217 -326 -227 -329 -6 -2 -8 -8 -4 -13 3 -5 1 -9 -5 -9 -5 0 -28
-30 -52 -67 -132 -213 -341 -413 -430 -413 -35 0 -58 19 -64 53 -12 70 -11 83
6 139 9 32 15 58 12 58 -2 0 -1 6 4 13 4 6 8 14 9 17 2 12 25 66 34 82 6 10
10 25 10 33 0 8 5 15 10 15 6 0 10 7 10 16 0 8 11 32 25 52 14 20 25 42 25 49
0 7 3 13 8 13 4 0 19 21 32 47 14 26 44 78 68 115 23 38 42 72 42 77 0 5 4 11
8 13 5 2 50 73 102 158 52 85 103 167 114 181 12 15 44 63 71 108 90 147 254
395 277 423 24 26 94 62 107 54 4 -3 13 -1 20 3 18 12 90 2 138 -19z m-20801
-142 c5 -16 -56 -188 -111 -313 -39 -87 -92 -223 -97 -245 -2 -8 -6 -17 -10
-20 -3 -3 -8 -14 -10 -25 -1 -11 -6 -22 -9 -25 -7 -7 -51 -118 -49 -125 1 -3
-5 -16 -13 -29 -9 -13 -17 -31 -19 -42 -2 -10 -5 -21 -8 -24 -3 -3 -19 -36
-35 -75 -31 -75 -54 -113 -110 -187 -41 -54 -71 -62 -81 -22 -13 51 15 187 52
257 8 15 13 27 9 27 -3 0 2 11 11 25 9 14 13 25 10 25 -4 0 -4 6 1 13 4 6 8
14 9 17 0 5 14 36 46 107 11 24 21 49 22 55 1 7 7 22 12 33 6 11 21 47 34 80
12 33 28 74 35 90 7 17 34 89 60 160 27 72 54 137 62 146 7 8 13 20 13 25 1
26 92 100 110 89 5 -3 10 -2 10 3 0 17 49 0 56 -20z m33499 -215 c52 -52 548
-718 620 -832 15 -25 51 -76 79 -115 29 -39 55 -79 59 -88 3 -10 11 -18 17
-18 5 0 10 -6 10 -13 0 -8 9 -22 20 -32 11 -10 22 -27 26 -39 4 -11 53 -85
110 -163 57 -78 104 -145 104 -148 0 -7 50 -76 61 -85 4 -3 10 -16 14 -29 4
-13 24 -49 44 -78 20 -30 36 -57 36 -61 0 -4 16 -34 35 -67 19 -33 46 -78 59
-100 12 -22 29 -47 37 -56 8 -8 14 -20 14 -25 0 -6 13 -31 30 -57 16 -26 28
-47 26 -47 -2 0 -25 28 -51 63 -27 34 -63 78 -79 97 -17 20 -47 55 -66 80 -19
24 -39 48 -45 54 -5 6 -23 29 -40 51 -16 22 -34 45 -40 50 -27 24 -335 440
-335 452 0 3 -15 24 -33 47 -18 23 -49 64 -67 91 -36 53 -168 225 -436 566
-89 113 -173 223 -188 245 -14 21 -37 56 -51 76 -14 21 -26 46 -28 55 -1 10
-6 24 -10 31 -5 6 -5 17 -2 22 3 6 6 29 7 53 1 70 10 73 63 20z m-19787 10
c21 -19 37 -69 24 -75 -11 -4 -114 -125 -165 -192 -20 -27 -37 -46 -37 -42 0
4 -7 0 -16 -8 -8 -9 -27 -19 -41 -22 -62 -16 -45 58 40 170 61 82 156 186 168
186 4 0 16 -8 27 -17z m-7340 -232 c1 -1 4 -1 8 -1 13 2 64 -64 74 -95 22 -67
17 -73 -137 -150 -77 -39 -152 -79 -166 -87 -13 -9 -32 -18 -43 -20 -10 -2
-21 -6 -24 -10 -10 -13 -92 -18 -129 -8 -23 6 -42 19 -52 37 -16 29 -15 73 2
73 5 0 9 6 9 13 0 7 10 19 21 27 12 8 27 20 33 26 6 5 31 18 56 28 25 10 47
21 50 24 5 7 67 41 185 101 27 14 55 31 62 38 10 9 28 11 51 4z m27114 -622
c206 -135 530 -359 613 -427 51 -42 145 -131 145 -138 0 -4 11 -21 24 -39 13
-17 30 -50 37 -73 7 -23 16 -42 21 -42 17 0 8 -105 -12 -138 -25 -40 -52 -51
-121 -48 -51 3 -148 25 -159 36 -3 3 -16 11 -30 17 -71 34 -470 311 -500 348
-7 8 -17 12 -22 9 -5 -3 -15 1 -21 10 -7 8 -86 63 -177 120 -91 58 -183 119
-205 135 -22 17 -48 33 -56 36 -47 18 -55 117 -15 190 5 11 10 23 11 26 0 8
102 101 112 101 4 0 17 7 28 14 11 8 36 14 57 14 31 0 76 -25 270 -151z
m-18197 37 c76 -37 297 -158 310 -169 6 -4 62 -37 125 -74 63 -36 127 -73 141
-82 15 -9 116 -69 225 -135 212 -126 282 -170 300 -185 6 -5 26 -17 45 -26 19
-10 36 -21 39 -24 7 -9 103 -72 207 -135 51 -31 98 -62 105 -69 7 -7 34 -25
60 -40 26 -15 53 -33 60 -40 7 -7 56 -39 108 -72 52 -33 103 -68 112 -77 10
-10 36 -29 59 -44 24 -14 47 -30 53 -35 6 -5 28 -23 50 -39 21 -17 36 -30 32
-30 -9 0 -185 94 -291 155 -49 29 -124 72 -165 96 -41 23 -93 53 -115 65 -55
29 -110 60 -320 179 -99 56 -218 122 -265 147 -672 360 -817 439 -886 485 -85
56 -96 71 -98 138 -2 63 4 64 109 11z m-12457 -298 c88 -54 145 -126 167 -208
18 -71 -6 -137 -60 -161 -11 -5 -38 -23 -60 -40 -22 -16 -49 -34 -60 -39 -22
-11 -21 -11 -180 -117 -59 -40 -113 -73 -119 -73 -7 0 -23 -12 -37 -26 -13
-14 -47 -39 -76 -55 -29 -17 -53 -35 -53 -40 0 -5 -5 -9 -11 -9 -6 0 -29 -15
-49 -32 -33 -29 -153 -115 -199 -143 -9 -6 -34 -22 -56 -37 -22 -15 -67 -37
-100 -49 -33 -12 -65 -26 -72 -31 -7 -6 -47 -11 -90 -11 -67 -2 -83 2 -110 21
-30 21 -47 61 -47 112 0 32 28 125 47 159 44 76 136 181 159 181 5 0 31 20 57
45 26 25 56 45 66 45 10 0 15 3 12 6 -3 4 22 27 58 53 196 142 233 168 264
184 18 10 38 22 45 27 59 49 75 60 85 60 6 0 11 5 11 10 0 6 12 16 28 23 15 6
33 17 39 24 7 6 41 28 75 49 35 20 72 45 83 55 59 52 117 58 183 17z"/>
<path d="M17080 33884 c-25 -3 -99 -11 -165 -20 -1058 -133 -1949 -799 -2446
-1829 -489 -1015 -490 -2249 -2 -3286 l55 -116 -50 -74 c-71 -106 -158 -265
-177 -326 -13 -41 -16 -78 -13 -160 4 -97 7 -114 35 -168 17 -33 54 -82 82
-108 28 -26 51 -50 51 -53 0 -2 -49 -112 -109 -243 -128 -279 -310 -689 -406
-916 l-68 -160 -236 -240 c-276 -281 -624 -681 -697 -802 -10 -17 -75 -101
-143 -185 -298 -368 -567 -784 -781 -1208 -256 -509 -368 -844 -544 -1640 -36
-163 -80 -341 -97 -395 -39 -127 -114 -281 -179 -366 -68 -91 -207 -221 -319
-299 -204 -142 -225 -167 -226 -275 0 -79 36 -143 102 -182 38 -22 62 -28 142
-32 l96 -6 -63 -39 c-35 -22 -109 -63 -165 -90 -125 -63 -158 -102 -165 -195
-7 -100 30 -171 112 -213 38 -20 52 -20 233 -16 106 3 193 4 193 2 0 -1 -10
-76 -22 -166 -20 -143 -23 -207 -23 -528 0 -390 9 -507 60 -805 116 -672 377
-1350 706 -1835 113 -166 198 -270 328 -400 305 -304 629 -469 956 -487 148
-8 249 12 370 72 89 44 92 45 144 35 30 -5 100 -10 156 -10 189 0 331 54 448
171 42 42 77 69 91 69 54 1 168 33 242 70 135 66 256 194 337 355 118 237 154
623 93 1004 -9 58 -10 97 -4 130 11 54 13 338 3 373 -4 12 21 -15 55 -62 206
-280 277 -350 388 -386 70 -22 198 -16 264 13 43 20 48 20 52 5 3 -9 33 -114
66 -232 34 -118 73 -237 88 -263 31 -59 94 -117 159 -151 58 -29 163 -50 209
-41 32 5 33 4 75 -72 76 -139 140 -232 190 -276 l48 -42 -20 -80 c-48 -184 4
-344 143 -445 l37 -27 -61 -109 c-134 -239 -133 -236 -133 -349 0 -93 2 -105
32 -166 40 -80 111 -150 191 -187 78 -35 192 -41 278 -14 l61 19 7 -81 c4 -45
14 -121 22 -171 15 -81 15 -108 2 -268 -8 -97 -17 -180 -21 -183 -3 -3 -23 4
-45 15 -73 37 -276 102 -397 126 -318 64 -627 57 -960 -24 -442 -108 -866
-367 -1147 -701 -102 -120 -205 -276 -267 -405 -58 -118 -136 -331 -150 -412
-23 -123 -6 -272 44 -380 14 -31 25 -57 25 -59 0 -13 -71 -13 -102 0 -32 14
-39 23 -54 70 -17 53 -19 55 -63 66 -36 9 -103 6 -305 -10 -289 -22 -320 -30
-393 -102 l-42 -41 -133 12 c-73 7 -167 16 -208 21 -41 4 -127 13 -189 20 -63
6 -128 18 -145 27 -16 8 -70 19 -120 24 -105 10 -227 22 -446 44 -85 9 -204
20 -265 26 -150 14 -268 25 -475 44 -96 9 -222 20 -280 25 -547 47 -701 60
-835 71 -71 5 -179 14 -240 19 -255 20 -717 42 -759 36 -60 -9 -119 -55 -157
-121 -17 -31 -40 -60 -51 -66 -26 -14 -417 4 -898 43 -74 6 -290 11 -480 12
-338 1 -346 1 -387 -21 -52 -28 -98 -84 -112 -137 -14 -52 -761 -4779 -761
-4815 0 -83 66 -176 146 -207 35 -13 59 -15 117 -9 104 11 127 10 177 -10 40
-15 55 -16 130 -6 66 9 93 9 115 0 62 -24 100 -28 177 -17 68 10 83 9 117 -7
34 -15 55 -17 138 -11 78 6 106 4 135 -8 42 -18 103 -20 163 -6 32 7 53 5 104
-12 58 -20 70 -21 133 -10 62 11 75 10 130 -9 55 -18 68 -19 128 -8 59 10 73
10 114 -6 37 -14 62 -16 129 -11 64 5 91 3 120 -9 37 -15 108 -18 162 -6 19 4
51 0 89 -13 51 -17 66 -18 123 -9 46 8 73 9 92 1 55 -22 96 -26 148 -17 44 8
62 7 99 -7 35 -13 61 -15 123 -10 61 5 87 3 117 -10 30 -13 56 -15 111 -10 56
5 84 3 121 -10 39 -14 59 -16 103 -8 43 8 66 6 114 -9 l59 -18 261 57 c143 31
272 63 286 70 14 7 42 31 61 52 35 39 45 68 63 186 4 21 17 49 31 63 23 23 30
25 77 18 29 -4 86 -9 128 -10 41 -1 93 -8 114 -15 24 -8 60 -10 97 -6 39 4 67
2 81 -6 12 -7 60 -13 107 -15 47 -1 110 -5 142 -9 58 -6 493 47 547 67 39 15
91 69 112 116 26 60 62 76 142 64 34 -5 112 -14 172 -21 61 -6 169 -17 240
-25 231 -26 319 -17 452 45 88 40 145 82 240 173 l83 80 72 -2 c40 -1 89 -6
109 -11 20 -6 52 -10 70 -10 19 0 66 -2 104 -5 110 -9 519 37 570 64 27 14 50
19 70 16 16 -3 46 -8 65 -10 32 -3 93 -11 250 -35 30 -4 71 -11 90 -15 27 -5
90 8 277 59 134 36 254 66 268 66 26 0 361 -56 550 -91 290 -55 501 12 732
233 65 62 88 78 112 78 29 0 236 -46 432 -95 108 -28 224 -31 579 -16 157 6
179 9 211 29 46 28 85 85 98 142 11 48 48 90 82 90 11 0 74 -20 140 -45 l121
-44 231 -10 c128 -6 275 -13 327 -16 599 -33 659 -35 699 -26 33 7 51 6 79 -6
32 -13 67 -14 277 -3 132 6 255 16 273 22 44 13 89 53 112 99 11 21 29 43 39
49 45 24 68 12 182 -91 118 -107 138 -119 199 -119 50 0 82 13 130 51 l39 32
258 -16 c274 -18 602 -32 1028 -46 299 -10 254 -19 522 98 90 39 176 71 193
71 36 0 76 -37 85 -79 9 -41 63 -101 109 -122 23 -10 64 -19 93 -19 41 0 68
-8 119 -35 76 -41 111 -43 204 -15 36 11 85 20 110 20 25 0 110 18 190 40 157
43 182 46 340 29 104 -10 107 -10 253 25 157 38 202 43 228 23 8 -7 30 -40 48
-74 36 -68 84 -108 141 -117 46 -8 584 29 678 47 l73 13 172 -53 c182 -57 177
-57 317 -32 30 5 87 12 126 15 69 6 72 5 106 -25 19 -16 48 -35 64 -41 17 -7
129 -13 264 -16 165 -4 250 -9 285 -20 82 -24 537 -96 564 -89 37 9 164 25
252 31 95 7 114 -2 144 -70 28 -63 67 -111 109 -134 27 -15 65 -16 331 -14
165 2 316 7 335 12 19 5 89 12 156 15 l120 7 39 -43 c150 -167 276 -264 405
-313 77 -28 211 -50 254 -41 17 3 81 11 141 16 61 6 148 15 195 19 47 5 145
13 218 19 l132 11 198 -60 c108 -34 345 -109 527 -167 l329 -106 51 13 c27 7
87 12 133 11 54 -1 94 4 119 14 27 12 55 14 115 9 64 -6 86 -4 118 11 34 15
47 16 94 7 45 -9 65 -8 108 5 59 17 93 19 156 8 32 -6 56 -3 100 14 47 16 65
19 93 11 51 -15 103 -12 156 8 31 12 57 16 73 11 45 -13 129 -9 171 8 35 13
51 14 103 5 62 -11 106 -6 158 18 22 10 39 10 87 0 64 -13 116 -8 165 17 25
13 38 14 79 4 70 -16 109 -14 168 9 41 17 58 19 87 10 55 -15 131 -11 181 9
40 16 50 17 109 4 57 -12 72 -11 121 3 63 19 112 21 188 9 42 -6 64 -3 116 15
57 20 70 22 110 11 68 -17 122 -14 178 10 42 19 55 20 93 10 113 -28 206 -5
268 69 63 73 66 107 23 332 -22 114 -35 209 -32 231 8 59 -9 150 -38 214 -19
41 -44 149 -86 368 -66 347 -77 376 -161 428 -34 21 -64 30 -121 36 -81 7
-110 24 -121 67 -8 29 16 79 45 94 23 13 79 96 79 118 0 7 14 44 30 82 22 49
30 84 30 124 0 31 -23 199 -50 374 -28 174 -58 364 -67 422 -9 58 -24 121 -34
141 -24 48 -89 105 -136 118 -21 6 -112 11 -203 11 -146 0 -169 2 -197 19 -27
17 -33 18 -43 5 -9 -10 -34 -14 -82 -14 -60 0 -72 3 -93 25 -47 46 -21 121 48
144 36 12 123 -7 138 -30 6 -10 11 -10 24 1 34 28 138 57 175 48 173 -41 310
52 310 211 0 32 -41 341 -90 686 -95 658 -98 671 -157 727 -61 59 -41 57 -805
67 -386 5 -707 6 -713 3 -5 -3 -71 -10 -145 -15 -226 -13 -373 -25 -405 -32
-24 -5 -52 5 -145 52 -189 97 -301 113 -600 85 -74 -7 -223 -19 -330 -27 -194
-15 -335 -27 -525 -45 -55 -5 -183 -16 -285 -24 -102 -9 -232 -20 -290 -26
-163 -16 -281 -28 -460 -44 -166 -16 -303 -29 -460 -46 -47 -5 -128 -14 -180
-19 -52 -5 -107 -14 -122 -20 -16 -6 -52 -10 -80 -9 -29 1 -98 -4 -153 -11
-55 -7 -137 -15 -182 -18 -79 -4 -84 -3 -107 22 -14 15 -27 39 -31 54 -8 39
-60 98 -108 124 -40 21 -52 21 -282 19 -132 -1 -290 -5 -351 -8 l-110 -6 -15
-57 -14 -56 -64 -3 c-55 -3 -63 -1 -57 13 31 82 40 139 40 245 -1 102 -5 126
-34 215 -170 520 -551 940 -1085 1201 -321 156 -585 221 -935 231 -330 9 -561
-36 -892 -172 -14 -6 -18 -2 -18 16 0 13 -7 97 -15 186 -13 144 -13 177 0 290
8 70 15 145 15 167 0 35 2 38 23 32 12 -4 51 -14 87 -22 121 -30 250 2 341 83
92 84 131 170 131 293 0 98 -20 153 -97 270 -34 52 -73 115 -85 140 l-23 44
24 16 c54 35 108 94 140 152 28 54 34 75 37 149 4 77 -1 108 -53 325 -31 131
-58 246 -61 255 -3 11 7 19 38 28 53 15 198 110 338 221 112 89 333 306 414
407 l49 61 46 -21 c38 -18 65 -22 161 -22 107 0 119 2 168 28 71 37 132 95
165 156 15 27 45 112 67 190 42 149 98 307 152 432 l33 75 39 -28 c53 -38 125
-58 211 -58 135 0 241 54 321 163 25 34 48 64 50 66 2 3 -17 -40 -42 -95 -101
-216 -165 -421 -200 -644 -28 -173 -25 -581 4 -740 62 -340 181 -570 374 -723
108 -86 248 -137 378 -137 71 0 72 -1 123 -45 67 -60 173 -111 267 -131 96
-20 255 -13 358 16 l74 21 61 -25 c105 -41 148 -49 267 -50 169 -1 309 36 482
125 443 231 818 738 1054 1424 314 910 367 1900 150 2762 l-33 130 162 7 c198
8 249 21 299 77 46 50 56 76 56 146 0 114 -57 177 -199 224 -81 27 -223 90
-216 97 2 3 39 11 81 18 43 8 95 25 120 39 74 43 114 139 95 225 -16 73 -53
112 -159 170 -281 153 -421 264 -534 425 -98 139 -158 277 -298 690 -212 627
-383 1000 -653 1425 -162 255 -413 588 -615 816 -52 59 -95 120 -122 174 -139
276 -391 596 -646 820 -177 156 -213 195 -297 321 -64 97 -79 126 -92 187 -19
91 -40 258 -60 469 -29 314 -64 420 -179 551 -35 40 -92 116 -127 168 l-62 95
-2 82 c-3 98 -38 224 -96 348 l-40 85 61 110 c259 465 407 901 487 1439 26
175 26 813 0 995 -137 958 -569 1735 -1275 2298 -453 361 -1008 589 -1592 656
-156 18 -506 21 -661 6 -650 -65 -1275 -318 -1814 -735 -66 -51 -91 -64 -140
-74 -33 -6 -69 -14 -80 -17 -19 -5 -20 0 -20 88 0 83 -3 100 -32 160 -55 117
-151 192 -278 218 -108 22 -211 -3 -324 -79 -240 -164 -415 -403 -501 -689
l-22 -74 -30 44 c-67 99 -122 227 -158 369 -26 103 -50 149 -106 209 -84 90
-222 135 -344 112 -84 -15 -145 -47 -207 -107 -51 -50 -52 -50 -58 -25 -10 38
-62 116 -103 151 -20 18 -66 46 -102 63 -58 27 -75 30 -155 30 -108 -1 -149
-15 -251 -84 l-73 -50 -155 89 c-393 225 -815 365 -1287 427 -119 15 -555 27
-659 18z m505 -394 c551 -51 1075 -246 1515 -564 58 -42 110 -76 115 -76 6 0
42 32 80 71 59 60 154 140 190 161 6 4 10 -47 10 -145 0 -158 6 -199 52 -342
27 -84 26 -81 255 -356 35 -41 76 -92 93 -112 16 -20 33 -37 37 -37 5 0 8 53
8 119 0 65 7 158 15 207 29 165 109 368 203 514 l35 55 17 -65 c63 -245 191
-471 365 -646 105 -106 203 -176 320 -230 73 -34 232 -80 242 -70 3 2 0 42 -6
87 -33 246 3 509 94 691 55 109 174 248 271 316 l32 22 -28 -73 c-16 -39 -34
-100 -40 -134 -16 -80 -8 -277 14 -358 19 -68 91 -225 103 -225 5 0 16 13 25
28 10 16 53 62 96 104 111 106 235 174 387 213 78 20 75 20 75 -20 l0 -36 107
92 c217 186 444 339 688 461 164 82 131 80 450 22 1555 -283 2522 -936 2848
-1922 89 -269 121 -478 121 -797 1 -452 -62 -772 -268 -1360 -30 -88 -76 -235
-100 -328 -25 -92 -47 -171 -50 -176 -14 -22 -243 -102 -331 -116 -48 -7 -95
8 -95 31 0 32 32 83 87 138 31 31 52 56 48 56 -4 0 -65 -29 -134 -64 -288
-146 -422 -162 -451 -54 -18 66 6 176 100 458 57 169 74 270 74 440 0 164 -17
270 -66 408 -69 195 -155 328 -334 513 -157 161 -176 279 -64 387 86 83 223
137 474 187 236 47 388 66 544 66 74 0 132 3 130 8 -11 30 -167 139 -273 191
-180 89 -349 132 -580 147 l-110 7 60 12 c200 41 511 43 750 4 71 -11 138 -20
148 -18 21 3 -176 122 -303 183 -173 82 -470 161 -719 190 -148 18 -442 20
-597 4 -319 -31 -673 -131 -1006 -282 l-57 -26 12 28 c97 228 411 535 778 762
54 33 99 62 99 64 0 21 -43 95 -55 95 -29 0 -278 -104 -439 -183 -375 -184
-647 -374 -871 -609 -123 -129 -203 -239 -271 -373 l-53 -103 -6 37 c-8 48 10
226 35 351 62 303 234 725 435 1064 42 71 75 132 73 137 -7 20 -280 -201 -414
-335 -375 -375 -616 -794 -703 -1221 -25 -124 -42 -334 -35 -440 l6 -80 -31
50 c-77 125 -117 333 -108 553 7 162 25 270 73 445 19 71 34 133 32 139 -5 15
-183 -201 -253 -308 -137 -208 -260 -483 -321 -721 -179 -698 7 -1344 547
-1903 65 -67 88 -100 111 -155 162 -389 543 -694 1019 -815 215 -55 556 -84
811 -70 182 11 253 20 498 66 651 123 1140 274 1550 480 90 46 165 82 167 80
2 -2 -6 -56 -16 -122 -38 -227 -46 -335 -45 -604 1 -522 81 -893 336 -1559 49
-129 103 -286 119 -349 103 -399 153 -1043 129 -1647 -24 -610 -87 -1070 -195
-1429 l-33 -109 28 -81 c123 -366 153 -821 79 -1216 -109 -579 -446 -1125
-909 -1474 -36 -27 -69 -52 -73 -56 -4 -4 20 -51 54 -105 111 -176 150 -285
150 -420 1 -140 -33 -237 -123 -348 -207 -259 -770 -557 -1308 -692 -74 -19
-154 -37 -177 -41 l-42 -6 -42 -107 c-263 -670 -396 -1486 -361 -2209 36 -732
183 -1346 476 -1985 l26 -58 -62 -28 c-129 -58 -280 -81 -540 -81 -166 0 -168
0 -172 23 -5 22 -167 1692 -166 1715 0 6 -4 12 -8 12 -4 0 -30 -68 -57 -150
l-49 -150 -32 152 c-75 359 -174 645 -313 904 -48 89 -139 219 -148 210 -5 -5
-51 -536 -54 -616 0 -28 -162 653 -328 1382 l-23 98 -58 -30 c-140 -71 -346
-201 -495 -314 -95 -72 -278 -247 -336 -323 -23 -29 -44 -52 -46 -49 -11 11
-110 355 -158 551 -61 245 -92 416 -102 548 -3 48 -9 87 -14 87 -28 0 -248
-216 -331 -325 -201 -265 -362 -629 -428 -967 -6 -32 -14 -58 -18 -58 -18 0
-163 124 -245 209 -164 171 -274 358 -333 566 l-17 60 -12 -45 c-6 -25 -74
-348 -151 -717 l-139 -672 -3 269 c-1 167 -6 270 -12 270 -15 0 -164 -184
-234 -290 -341 -512 -504 -1127 -511 -1925 l-3 -299 -52 -18 c-164 -56 -379
-68 -523 -29 -93 24 -221 89 -279 141 l-43 38 135 543 c74 299 135 562 134
584 0 22 -6 105 -13 185 -25 287 24 812 122 1318 18 94 31 172 28 172 -3 0
-100 -77 -216 -171 -115 -94 -211 -166 -213 -161 -1 5 6 269 18 587 11 318 18
580 16 582 -2 3 -46 -51 -97 -118 l-94 -122 -3 438 c-2 390 -4 436 -18 431 -8
-3 -152 -98 -320 -211 -269 -182 -304 -203 -297 -178 33 129 189 779 187 781
-1 2 -150 -58 -330 -132 -181 -75 -331 -132 -335 -128 -3 4 -32 108 -64 232
-32 124 -86 335 -121 470 -35 135 -85 327 -110 428 -26 100 -50 182 -53 182
-3 -1 -121 -169 -261 -375 -140 -206 -257 -370 -259 -364 -2 6 -45 339 -95
740 -51 401 -96 732 -99 736 -4 4 -145 -48 -313 -116 -167 -68 -306 -122 -309
-120 -2 3 39 424 91 938 52 513 94 935 92 936 -2 2 -152 -39 -333 -91 -182
-52 -340 -97 -352 -100 -20 -5 -15 10 48 142 39 82 84 176 99 209 16 33 92
195 169 360 102 217 138 301 129 306 -7 4 -127 82 -266 173 l-253 166 -146 0
c-133 0 -145 1 -139 17 4 9 29 77 57 151 63 167 152 362 231 506 94 170 193
319 226 338 45 27 136 130 180 203 l39 66 26 -43 c73 -123 196 -233 340 -303
87 -42 130 -52 77 -16 -191 126 -325 301 -395 516 -57 176 -65 260 -75 775
-10 564 -20 655 -85 766 -44 75 -38 101 84 380 269 616 571 1267 625 1346 l24
36 -102 26 c-55 15 -136 33 -180 39 -68 11 -76 14 -62 26 21 17 21 32 0 24
-41 -15 149 284 259 411 l49 55 -76 138 c-226 414 -373 900 -416 1373 -13 148
-13 442 0 590 91 1014 614 1911 1403 2406 117 74 321 176 453 227 195 77 477
144 694 166 122 12 406 13 535 1z m6696 -2884 c166 -63 302 -140 425 -239 344
-278 504 -707 418 -1121 -52 -256 -179 -487 -379 -695 -225 -233 -480 -386
-805 -484 -446 -135 -914 -105 -1309 84 -301 143 -529 375 -641 651 l-23 56
48 77 c53 86 59 85 68 -12 9 -89 59 -235 114 -332 90 -160 268 -317 439 -390
132 -56 184 -65 364 -65 151 0 172 2 255 28 304 93 538 331 626 636 30 107 38
326 14 441 -36 181 -119 333 -255 469 -149 149 -310 232 -510 263 l-84 13 79
56 c184 129 446 283 695 408 153 78 371 179 386 179 7 1 40 -10 75 -23z m-735
-1381 c53 -15 100 -57 128 -112 18 -36 21 -118 5 -160 -18 -49 -79 -103 -136
-119 -48 -14 -58 -14 -106 0 -201 59 -197 348 7 396 46 11 48 11 102 -5z m-96
-520 c22 -14 42 -68 36 -100 -16 -83 -115 -108 -175 -44 -44 47 -10 151 52
161 22 4 68 -5 87 -17z m-9774 -3180 c-31 -124 -87 -324 -126 -443 -166 -516
-279 -983 -305 -1262 -7 -75 -17 -83 99 75 85 116 208 238 304 299 67 44 146
82 140 68 -2 -4 -34 -58 -71 -121 -341 -568 -572 -1324 -666 -2176 -36 -323
-45 -504 -45 -890 -1 -652 35 -930 158 -1247 170 -437 453 -871 860 -1318 166
-183 294 -408 381 -673 72 -220 90 -329 90 -557 0 -179 -2 -201 -24 -269 -28
-86 -70 -152 -124 -195 -50 -40 -133 -48 -198 -19 -108 49 -252 189 -381 373
l-60 85 5 -95 c10 -163 68 -336 162 -481 30 -46 45 -81 45 -102 0 -115 -196
-193 -330 -131 -107 50 -254 195 -413 406 -44 59 -82 107 -83 105 -2 -2 4 -25
12 -52 57 -187 72 -370 35 -442 -32 -64 -62 -78 -161 -77 -136 1 -270 52 -410
158 -620 465 -1121 1605 -1200 2726 -31 446 21 964 130 1286 17 48 29 89 27
90 -1 1 -28 -9 -60 -22 -55 -23 -216 -65 -302 -79 l-40 -6 45 37 c190 156 363
409 475 694 52 131 108 320 99 329 -4 3 -8 1 -11 -5 -2 -6 -26 -45 -54 -87
-99 -149 -237 -276 -375 -345 -64 -32 -168 -66 -185 -60 -6 2 19 27 55 56 90
73 211 203 274 295 129 187 191 359 287 794 176 797 297 1159 554 1659 234
454 528 889 875 1294 164 190 548 571 563 557 2 -3 -21 -107 -51 -232z m14443
-789 c271 -243 526 -553 722 -877 158 -262 283 -539 499 -1109 34 -91 89 -217
121 -280 l60 -115 -63 69 c-95 105 -214 261 -308 405 -47 71 -88 130 -92 130
-9 1 9 -60 101 -339 101 -304 154 -437 256 -645 128 -261 237 -412 407 -561
43 -37 76 -69 73 -72 -9 -9 -138 59 -195 103 -137 106 -284 315 -393 560 -40
92 -47 103 -41 65 8 -58 75 -302 118 -433 53 -163 129 -359 268 -697 261 -632
343 -892 394 -1245 27 -180 24 -524 -4 -710 -49 -317 -163 -685 -347 -1116
-239 -559 -564 -1066 -727 -1134 -36 -14 -39 -14 -59 6 -20 20 -21 29 -16 103
6 77 30 184 63 282 8 25 14 48 12 49 -2 2 -35 -39 -73 -93 -92 -127 -274 -311
-340 -343 -72 -34 -135 -33 -174 5 -67 64 -97 200 -87 391 4 66 13 153 20 193
7 39 10 72 7 71 -3 0 -35 -41 -71 -91 -36 -50 -114 -142 -173 -204 -171 -178
-286 -244 -424 -244 -109 1 -193 53 -269 167 -103 155 -154 468 -133 807 26
421 126 669 517 1293 249 395 373 662 452 970 67 257 92 483 91 833 0 533 -80
1076 -242 1640 -34 116 -177 549 -233 703 -75 207 -191 459 -308 670 -54 96
-59 112 -52 140 l9 31 97 -130 c316 -427 519 -813 607 -1157 37 -143 45 -115
61 203 30 618 -96 1425 -282 1793 l-40 80 34 -27 c18 -16 89 -78 157 -140z
m-6369 -8490 c80 -326 184 -661 312 -1006 101 -271 125 -324 176 -381 46 -51
137 -104 197 -114 68 -11 73 -14 79 -49 10 -53 53 -126 106 -181 l48 -50 126
-540 c139 -596 154 -653 200 -740 17 -33 32 -63 34 -67 2 -5 -26 -8 -63 -8
l-67 0 -25 58 -26 59 -181 -4 c-100 -3 -226 -9 -281 -14 -201 -20 -464 -27
-1116 -28 -583 -1 -672 1 -710 15 -145 52 -353 73 -524 54 -138 -15 -322 -61
-383 -95 -25 -14 -64 -30 -86 -36 -24 -5 -211 -9 -438 -9 l-397 1 -35 -56 -36
-55 -70 0 c-38 0 -70 2 -70 5 0 2 18 28 40 57 51 67 114 195 134 273 9 33 75
312 147 620 121 516 134 563 162 594 35 40 77 126 77 158 0 23 8 27 75 38 59
10 149 62 196 112 23 25 56 77 74 116 80 176 219 568 296 839 l22 77 26 -18
c115 -81 383 -205 475 -222 118 -20 248 22 334 108 56 56 88 116 107 205 7 34
14 58 14 52 2 -29 96 -115 159 -146 63 -31 72 -33 177 -33 104 0 113 2 170 31
64 34 115 84 205 203 49 66 298 317 305 309 2 -2 17 -61 35 -132z m-5146
-1895 c204 -41 392 -116 540 -215 91 -62 204 -161 237 -209 15 -21 4 -14 -33
23 -90 89 -251 174 -403 214 -149 39 -419 96 -505 107 -100 12 -300 7 -445
-12 -105 -14 -193 -44 -383 -132 -221 -102 -308 -165 -572 -412 -115 -108
-279 -239 -288 -230 -7 7 85 150 151 234 279 353 695 589 1147 651 119 16 432
5 554 -19z m9056 -60 c324 -67 604 -214 894 -469 210 -184 344 -361 362 -477
13 -91 -2 -85 -84 36 -109 161 -164 231 -265 335 -213 221 -504 367 -859 429
-136 24 -365 38 -518 31 -348 -17 -589 -71 -815 -183 -108 -54 -103 -48 35 44
215 144 433 228 694 268 130 20 430 13 556 -14z"/>
<path d="M18373 32807 c3 -8 42 -78 87 -154 91 -154 216 -406 278 -558 123
-304 201 -640 190 -825 l-3 -55 -48 95 c-142 283 -424 564 -798 796 -208 130
-484 264 -727 353 l-83 31 -19 -43 c-11 -23 -20 -47 -20 -53 0 -7 35 -33 78
-60 300 -184 568 -415 701 -604 62 -88 119 -195 99 -187 -7 3 -67 28 -132 57
-371 160 -721 237 -1121 247 -389 9 -715 -46 -1038 -177 -125 -51 -409 -213
-383 -218 9 -2 75 6 148 18 281 46 531 46 753 1 l90 -19 -100 -1 c-326 -4
-643 -116 -845 -299 l-55 -50 60 5 c87 8 319 -14 406 -37 459 -126 710 -288
683 -443 -5 -32 -21 -56 -74 -112 -189 -199 -299 -410 -345 -660 -14 -71 -16
-127 -12 -265 5 -196 24 -290 92 -461 51 -126 55 -160 22 -193 -22 -22 -35
-26 -85 -26 -74 0 -199 35 -333 95 -57 24 -104 43 -107 41 -14 -15 110 -225
175 -296 l38 -43 -35 8 c-136 29 -896 327 -934 366 -6 5 -14 9 -19 9 -18 0 8
-23 91 -79 388 -260 1070 -554 1757 -755 66 -20 176 -54 245 -76 251 -82 593
-160 789 -180 498 -50 978 91 1317 388 117 101 250 282 309 418 25 57 52 94
132 180 243 262 386 479 493 748 141 357 156 805 41 1206 -65 224 -182 478
-308 668 -78 118 -257 335 -261 318 -1 -6 15 -79 38 -161 57 -211 73 -344 67
-540 -5 -176 -24 -271 -77 -383 -53 -114 -55 -114 -52 22 12 419 -150 875
-451 1275 -177 236 -349 409 -573 577 -144 109 -149 112 -141 91z m-1197
-2098 c148 -61 421 -192 579 -277 230 -123 580 -346 570 -362 -2 -4 -32 -10
-66 -14 -89 -9 -245 -65 -341 -122 -110 -65 -247 -202 -312 -312 -95 -160
-145 -366 -132 -548 9 -128 37 -232 96 -351 112 -227 290 -383 525 -462 400
-133 832 16 1063 368 88 134 152 320 152 441 0 52 9 46 61 -40 l41 -69 -40
-90 c-230 -522 -852 -833 -1520 -760 -634 69 -1191 426 -1451 929 -110 214
-152 378 -152 590 0 239 58 433 188 629 118 178 326 350 540 447 54 24 99 44
99 44 1 0 46 -18 100 -41z m799 -1369 c69 -26 125 -111 125 -190 0 -181 -218
-273 -345 -145 -71 71 -82 161 -30 251 48 83 157 119 250 84z m68 -540 c30
-34 34 -67 12 -110 -19 -37 -43 -50 -90 -50 -100 0 -131 139 -41 185 42 21 85
12 119 -25z"/>
<path d="M20430 28329 c-441 -39 -751 -173 -842 -364 -17 -37 -28 -77 -28
-103 0 -123 117 -322 292 -494 56 -56 289 -245 393 -319 125 -90 280 -164 419
-201 106 -28 291 -30 386 -5 154 41 287 124 420 263 195 202 381 564 383 745
3 202 -209 355 -603 433 -69 14 -168 30 -220 36 -134 15 -475 20 -600 9z m630
-125 c369 -48 641 -172 679 -310 14 -50 -2 -120 -49 -214 -139 -277 -500 -555
-800 -616 -234 -47 -524 44 -807 252 -225 165 -429 444 -410 560 12 72 103
159 224 215 129 59 357 111 569 129 146 12 440 4 594 -16z"/>
<path d="M19976 27850 c-94 -29 -124 -143 -62 -237 53 -80 212 -169 344 -193
62 -11 79 -9 135 12 31 12 57 54 57 90 -2 150 -326 374 -474 328z m142 -172
c56 -28 199 -145 189 -154 -8 -8 -121 28 -176 56 -69 34 -141 99 -141 125 0
24 46 15 128 -27z"/>
<path d="M21328 27836 c-133 -55 -253 -153 -294 -241 -28 -59 -29 -76 -9 -115
43 -83 190 -80 357 7 130 68 198 146 198 228 0 124 -113 178 -252 121z m142
-126 c0 -22 -33 -60 -83 -94 -56 -38 -174 -86 -210 -86 -19 1 -15 7 28 47 61
56 113 90 185 120 61 25 80 28 80 13z"/>
<path d="M25426 27047 c-14 -18 -49 -83 -77 -143 -105 -224 -426 -988 -626
-1491 -6 -16 84 -61 96 -47 4 5 36 79 71 164 202 500 511 1234 562 1335 l25
49 16 -54 c103 -356 243 -1245 282 -1795 4 -49 10 -124 14 -167 l7 -76 -138
69 c-1341 672 -2815 1094 -4293 1228 -342 31 -531 41 -915 48 -1353 23 -2722
-193 -4005 -631 -121 -41 -222 -72 -225 -70 -3 3 -5 247 -4 542 1 510 15 876
34 896 18 19 263 -336 545 -789 92 -148 178 -287 192 -308 20 -32 29 -38 48
-33 37 9 75 25 75 31 0 14 -386 628 -527 838 -232 345 -325 440 -390 399 -61
-39 -83 -324 -83 -1097 l0 -521 -97 -49 c-53 -28 -137 -76 -187 -109 -92 -59
-245 -176 -246 -187 0 -4 51 9 113 28 682 207 1575 386 2437 487 2896 340
5720 -70 8168 -1187 79 -36 142 -61 140 -57 -8 24 -445 373 -504 403 l-31 16
-6 128 c-40 768 -259 2038 -374 2166 -26 28 -68 22 -97 -16z"/>
<path d="M14786 25529 c-45 -152 -68 -302 -68 -449 0 -170 18 -254 82 -389
112 -233 297 -388 520 -436 34 -7 33 -6 -43 70 -150 149 -266 359 -333 603
-32 117 -104 466 -120 577 -11 79 -20 85 -38 24z"/>
<path d="M20230 24403 c-637 -46 -1249 -206 -1837 -479 -34 -16 -62 -32 -63
-35 0 -4 42 4 93 17 395 103 1010 192 1534 224 747 45 2007 -45 2813 -201 167
-33 438 -99 528 -130 30 -10 57 -17 59 -16 6 6 -103 75 -200 127 -481 255
-1280 431 -2227 490 -150 9 -590 11 -700 3z"/>
<path d="M16408 22853 c-166 -262 -324 -564 -362 -689 l-6 -21 72 18 c227 57
476 47 703 -27 77 -25 261 -110 297 -138 20 -15 16 -62 -62 -631 -53 -388 -81
-618 -76 -622 2 -3 42 12 88 32 291 130 607 195 943 195 258 0 513 -40 731
-116 42 -14 78 -24 80 -21 9 9 -166 165 -254 225 -110 76 -278 158 -422 207
-81 27 -95 34 -60 31 188 -22 248 -30 340 -48 567 -106 1098 -350 1555 -714
104 -84 388 -352 405 -384 7 -13 -13 -15 -154 -16 -181 -1 -293 -17 -445 -66
-91 -28 -315 -127 -308 -135 2 -2 70 -15 151 -28 682 -116 1330 -338 1930
-661 88 -48 169 -92 179 -99 15 -11 7 -20 -75 -79 -51 -36 -160 -100 -243
-140 -256 -127 -435 -174 -705 -186 -91 -4 -159 -7 -153 -8 159 -22 1062 -169
1152 -187 404 -84 680 -248 825 -489 35 -59 35 -59 46 -32 35 94 74 306 85
466 12 172 -23 416 -83 591 l-20 56 77 -34 c290 -125 634 -118 919 17 248 118
450 332 555 590 30 71 168 610 187 729 27 164 11 320 -45 448 -30 66 -123 223
-134 223 -4 0 -31 -89 -60 -197 -61 -225 -130 -440 -191 -593 -132 -334 -320
-627 -522 -815 l-71 -66 -28 135 c-111 544 -353 1076 -696 1532 -96 128 -109
141 -100 98 35 -178 34 -426 -2 -592 -62 -282 -194 -536 -385 -739 l-83 -87
-40 32 c-69 54 -297 297 -396 420 -243 302 -446 644 -610 1024 -94 218 -193
364 -355 527 -162 162 -328 287 -592 445 -172 103 -777 422 -786 413 -3 -2 11
-42 30 -88 75 -185 118 -364 136 -574 10 -113 6 -265 -6 -265 -2 0 -37 26 -77
59 -625 505 -1461 912 -2253 1096 -152 35 -484 95 -529 95 -19 0 -37 -22 -97
-117z"/>
<path d="M21500 15731 c-123 -124 -256 -181 -438 -189 -84 -3 -130 0 -182 12
l-69 17 -76 -60 c-136 -108 -264 -153 -436 -153 -109 1 -182 17 -300 67 -45
20 -83 34 -84 33 -1 -2 -25 -72 -54 -156 -73 -214 -174 -462 -216 -532 -19
-32 -56 -81 -81 -109 -48 -53 -171 -141 -226 -162 -24 -8 -43 -28 -67 -68 -28
-48 -48 -121 -142 -516 -61 -253 -118 -497 -128 -542 l-17 -82 80 -6 c45 -4
169 -5 276 -3 190 3 196 4 247 30 131 70 348 112 578 112 181 1 252 -8 400
-51 l90 -26 787 7 c524 4 796 10 815 17 15 6 103 13 196 16 92 3 167 9 167 13
0 4 -49 211 -108 461 l-108 454 -56 77 c-31 43 -58 81 -60 86 -1 4 -29 20 -60
36 -120 58 -211 142 -284 263 -59 98 -220 527 -329 876 -26 81 -47 146 -48
145 -1 -1 -31 -31 -67 -67z"/>
</g>
</svg>
